<?xml version="1.0" encoding="utf-8"?>
<!-- Generator: Adobe Illustrator 27.1.0, SVG Export Plug-In . SVG Version: 6.00 Build 0)  -->
<svg version="1.1" baseProfile="basic" id="Layer_1"
	 xmlns="http://www.w3.org/2000/svg" xmlns:xlink="http://www.w3.org/1999/xlink" x="0px" y="0px" width="4000px" height="4000px"
	 viewBox="0 0 4000 4000" xml:space="preserve">
<g>
	<path d="M921.1,261.9c2.8,0,5.8,0,8.6,0.4c21.6,3.1,36.8,46.4,49.8,63.3c20.9,4.5,58.8,7.5,74.8,20.8c3.2,2.7,5.1,6.3,5.4,10.5
		c1.3,19-36.4,51.9-48.5,65.3c0.3,16.4,2.7,32.8,3.1,49.2c0.3,10.4-0.5,20.5-8,28.3c-18.9,8.6-57.9-14.2-77.6-20.1l-2.3-0.7
		c-17.1,5.2-61.3,30.8-76.5,26.2c-33.2-10-5.1-57.2-8.6-78.9c-3.2-19.7-35.6-41.3-43.8-62.7c-1.7-4.5-2.6-9.4-0.2-13.8
		c8-15,59.1-17.7,75.7-21.9l2.6-0.7C892,307,900,277,921.1,261.9z"/>
	<path fill="#FCFAF3" d="M924.8,270.8c19.5,3,32.4,44.3,48.8,62c26.1,9.2,54,11.8,80.2,21.3c-13.2,25.7-36.6,43.5-52.7,67.1
		c1.1,17.6,8.9,55.4-0.4,70.1c-11.5,5.6-57.6-17.7-72.6-22.3c-27,3.9-48.1,22.2-73.4,29.5c-2.8-0.7-4.8-0.4-6.5-3
		c-9.1-14.6,1.1-59.8,3.6-77.4c-13-14.5-32.2-34.1-40.9-51.4c-2.5-4.9-2.3-7.1-0.9-12.3c13.5-12.1,50.8-13,69.1-18
		C898.2,317.5,907.2,291.1,924.8,270.8z"/>
	<path d="M1771.6,1595.5c32.1,4.6,38,41.2,55.6,63.3c0.5,0.6,1,1.2,1.5,1.8c20.9,6.1,48.4,8.7,66.5,21c4.9,3.3,9.2,7.9,9.7,14.2
		c1.5,19.6-35.2,50.4-48.2,63.9c2.8,19.1,8.2,47.1,2.8,65.6c-1.7,5.9-4.9,11.3-10.8,13.8c-18.3,7.8-58.2-15.2-75.6-22.9
		c-24.5-2.4-48.8,29-73.3,24.4c-5.4-1-9.2-3.3-12.5-7.7c-11.2-15.5-0.1-56.2,2.4-74.4c-12.8-18.8-45.5-44.7-44.7-67.9
		c8.2-18.5,60.5-24.8,79.4-32.9l2.5-1.1C1738.2,1635.3,1749.1,1606.6,1771.6,1595.5z"/>
	<path fill="#FCFAF3" d="M1772.7,1605c24.2,4.9,33.7,45.8,50.4,63.5c19.6,7.7,42.4,8.5,61.3,17.8c5.8,2.8,7.7,5,9.6,11.1
		c-4.1,19.5-32.7,42.9-46.1,57.6c0.4,17.8,9.3,51.4,1.8,67.1c-2,4.2-4.4,6.9-9.2,8c-15.7,3.4-52.3-18.5-67-25.2
		c-23.5-0.5-49,30.5-71.8,26.4c-2.9-0.5-4.8-3-6.3-5.3c-8.3-12.4,2.1-55.7,4.3-71.2c-11.9-17.1-28.1-30.9-39.6-48.1
		c-3.6-5.4-4.8-8.7-3.4-15c12.1-12.4,57.3-19.1,75.4-25.2C1744.9,1646.6,1752,1618.5,1772.7,1605z"/>
	<path d="M2169.7,2355.2c3.6,0,7.4,0,10.9,0.7c18.1,3.7,38.6,47.8,47.3,63c21.9,6.2,53,11.2,72.1,23.5c3.8,2.5,7.4,6.3,7.9,10.9
		c2.5,21.1-32.8,47.3-45.4,62.2l-1.5,1.8c0.5,20.8,6.8,50.1-0.6,69.7c-2.2,5.9-6.2,9.8-12.1,11.9c-17.9,6.4-55.6-14.5-71.7-22.1
		c-21.6,4.6-46.6,26.9-68.3,24.7c-5.4-0.5-9.9-3.2-13.4-7.4c-12.5-15.3-3.3-55.9-1.4-75.2c-12.4-17.1-41.2-37.1-46.3-57.7
		c-1.2-4.8-1.2-8.8,1.7-13c11-15.6,54.5-23.1,72.5-28.3C2137.3,2399.4,2147.5,2369.4,2169.7,2355.2z"/>
	<path fill="#FCFAF3" d="M2173.9,2362.7c20.4,6.5,37.8,47.3,48.1,65.5c21.1,6.9,52.5,10.8,70.8,22.7c4.3,2.8,4.4,3.5,5.5,8.2
		c-4.5,15.1-22.9,27.9-33.7,38.8c-3.5,3.5-9,8.1-11.1,12.5c-6.5,13.2-0.1,42.2-0.3,57.3c-0.1,7.6,0.1,15.1-5.7,20.7
		c-18.4,5-51.5-14.2-68.8-22.1c-22,3.4-41.5,16.8-61.6,25.4c-5.3,2.3-7.2,2.6-12.6,0.7c-10.7-17.4-2.3-56.3-0.1-76.4
		c-11.1-15.7-26.5-28.4-38.2-43.7c-4.8-6.3-7.8-10.2-6.7-18.2c11.5-13.9,49.9-19.1,67.6-26.1l2.5-1
		C2145.5,2406.2,2154.2,2380.8,2173.9,2362.7z"/>
	<path d="M1336,904.1c4.4-0.5,9.4-0.8,13.7,0.3c20.5,5.1,37.3,48.1,48.1,65.1c16.4,3.8,33.1,7.2,49.2,12c9.6,2.9,25.4,7.4,29.5,17.7
		c8.7,21.8-37.2,47.6-45.7,64.8c-10.6,21.6,12,50.4,2.3,72.9c-2.4,5.7-7.1,10.2-13,12.1c-19.5,6-51.1-15.1-68.2-23.8
		c-23.4-5.8-49.2,23.4-75.4,23.5c-5.6,0-11.3-1.5-15-6.1c-12.9-16.3-1.2-56,0.6-75.7c-15-17.8-35.7-32.3-47.5-52.5
		c-3.9-6.7-4.9-11.4-2.9-18.9c15.7-18.7,56.2-19.6,79.2-26l2.5-0.7C1307.4,948.3,1316.6,919.8,1336,904.1z"/>
	<path fill="#FCFAF3" d="M1342,913.5c26.6,8.2,33.5,46.5,51.9,65.7c18.2,3.5,37.1,7.1,54.6,13c7.7,2.6,15.6,5.3,19.3,13
		c-0.7,13.6-41,45-50.5,61.2c-0.4,0.7-0.8,1.4-1.2,2c2.9,15,13.1,49.9,6.9,63.6c-1.4,3-2.6,5.2-5.7,6.4
		c-14.7,5.7-53.3-18.5-67.2-25.4c-26.1-1.8-50.5,28.5-72.6,26.2c-3-0.3-6.1-0.6-8-3.2c-9.9-13.5,1.8-56.9,2.6-74.3
		c-14.9-18.3-43.4-33.6-49.7-57.3c4.1-19.8,52.3-16.4,70.9-25.6C1317,967,1320.2,929.8,1342,913.5z"/>
	<path d="M306.9,338.1c2.2-0.2,4.4-0.4,6.6-0.5c8.8-0.3,17.3,1.6,23.5,8.1c6.2,6.5,9.5,15.1,10.9,23.8c4.2,26.8,0.2,91.4,0.3,121.2
		l188.7-0.4c30.9-0.1,63.4-2.1,94.2,0.1c5.2,0.4,11.1,0.4,15,4.2l-1.2,3c-11.5,5.3-259.6,2.7-295.9,3c-0.6,97-0.7,194-0.3,291
		c90.6,3.1,182,0.6,272.7,0.8c15.1,0,68.4-2.8,79.2,1c1.4,0.5,2.4,1.7,3.6,2.6l0.3,2.9c-4.6,3.1-9.2,3.7-14.6,4
		c-36.2,2.1-73.7-0.2-110-0.2l-231.4,0.1l-0.1,290.7l224.8-0.1c40.1,0,89.8-4.9,128.7,3.1l0.5,4.1l3.8-1.8l-3.8-2l-1.2,4.2
		c-29.8,6.9-83.7,2.5-115.8,2.3l-236.9-0.4c-2.4,94.9,0.1,190.6,0.6,285.6l228.5-0.1c36,0,73-2.1,108.9-0.1c5.5,0.3,10.5,0.7,15.1,4
		l-0.3,3c-1.2,0.9-2.2,2-3.5,2.6c-6.7,2.6-310.9,0.5-348.3,1.3c-0.1,94.8-2.3,189.8-0.3,284.6l228,0.5c36.2,0.1,73.3-2.1,109.4,0
		c5.8,0.3,10.8,0.8,15.9,3.8l0,2.8c-9.5,6.7-313.4,3.9-353,3.9c-1.1,98.2-0.2,196.6,0,294.8l235.6-0.1c30.4,0,61.9-2.3,92.1-1.1
		c8.6,0.3,17.5,2.3,25.3,5.8l-0.3,1.6c-33.6,7.7-89.3,3.1-124.8,3.1l-227.8,0.7c-1.5,97-0.5,194.2-0.3,291.2
		c109.5,0,219.3-1.5,328.7,0c8.1,0.1,17.2-0.6,23.1,5.5l-0.8,3.1c-9.6,5.2-305.5-0.1-350.7,2.4l-1.1,278.4
		c39.7,0.3,339-2.9,348.3,1.2c1.9,0.9,3.3,2.7,4.9,4l2.1-1.6l-1.8-1.4l-0.2,3.3c-7.5,2.9-15,4.5-23.1,5
		c-33.5,2.1-69.1-0.4-102.8-0.5l-227.5,0.3l0,291.4c40.2,1.1,340.3-3.8,352.5,1.8c3.2,1.4,2.7,2.1,4,5c-3.9,3.5-7.2,3.5-12.2,3.9
		c-31.3,2.3-64.8-0.2-96.3-0.3c-82.4-0.2-165.3-2.2-247.6,0.3c-2.5,95.6-0.4,192,0.2,287.7l233.4-0.6c36.2-0.1,74.8-2.8,110.8-0.1
		c4.8,0.4,8.3,0.7,12,4c-0.5,2.4-0.1,1.8-2.7,4.2c-3.6,3.2-312.7,2.8-353.1,2.9c-2.8,96.3-1,193.5-0.9,289.9l227.6,0.3
		c33.3,0,69.3-3,102.4,0c6.3,0.6,16.3,1.3,20.7,6.4c-3.9,3.6-9,3.6-14.2,4c-36.6,3-75.4,0.4-112.2,0.4l-223.6,0
		c-2.7,64.2-0.9,129.3-0.7,193.6l398.2-0.2l1.8-2180V896.6c0-94.3-1.9-189,0-283.3c0.1-6.1,0.2-11.8,3.5-17.1
		c13-4.8,306.3-4.2,339.7-2.9c7,0.3,13.7,0.8,20.1,3.7c3,6.2,3.5,12.2,3.7,19c0.9,25.9-0.2,52.3-0.2,78.3l0.3,174.6l0.1,715.9
		l0.7,2099.5l57.6,0.4l0.4-1600.2l0-554.9c0-84.2-2.8-170.6-0.6-254.5c0.1-4,0.4-6.4,2.4-10c1.8-3.3,3.6-3.4,7.2-4
		c29.2-4.8,91.6-1.3,125.3-1.3l142.2,0.1c20.4,0,41.1-1.1,61.4-0.3c4.5,0.2,10,0.6,13.6,3.5c3.5,2.8,2.1,41.2,2.1,48l0.7,2373.5
		l58.1,0.1l-0.3-822.3l-0.3-658.6c0-37.7-4.6-211.2,2.3-233.8c18.1-6.3,329.2-5.5,350.2-0.3c3.7,5.5,4.2,11.7,4.3,18.2
		c1.3,47-0.1,94.6-0.2,141.6l-0.4,278l0.1,761.5c-0.2,171.7-2.3,343.7,1.1,515.4l60.3,0.2l-0.3-513l-0.8-294.1
		c0-32.4-5.2-138.6,3.1-160.8c11.3-4.3,318.1-4.4,336.7,0.1c6.4,6.4,6.7,16.5,7.2,25.2c1.9,34.1,0.2,69.1,0.1,103.4l0,193.7
		l0.1,644.8l123.7,0.6c16.1-18.8,69.9-33.9,94.3-43.3c27-10.4,54.7-21.5,80.1-35.3c35-19,69.6-43.4,106.7-57.5
		c3.7-51.8-6.2-110.8-10.2-163c-7.9-99-14.8-198.1-20.6-297.3c-3.8-61.7-10.3-124.8-6.7-186.6c4-68.2,21.9-135.8,39.6-201.5
		c27.4-102.2,60.1-202.5,89.1-304.2c-16.4-5.6-33.2-11.5-45.3-24.6c-5.1-5.6-10.1-12.9-10.2-20.7c-0.5-37.7,22-97.3,32.3-134.8
		c11.2-40.7,18.8-80.7,20.8-123c-47.7-34.6-99.6-71.6-140.4-114.1c3.2-6.6,7.2-13,10.8-19.4c-36.2-25.6-96.5-66.4-106.2-112.2
		c-4.9-23.2-2.8-44.6-9.3-72.1l8.1-18.7c-35.5-38.7-68.6-80.3-101.6-121.2c-18.5-22.9-38.6-45.3-55.3-69.6c8.4-8.3,17-15.8,27-22.2
		c48.6,12.6,96.4,29.1,144.7,43.1c46.3,13.4,93.4,24.4,139.2,39.2c15.6,26.7,38.2,51.6,57.3,76c41.6,53.3,83.9,106,126.7,158.3
		c7.3-19.1,14.6-38,24-56.2c42-81.1,129.4-173.1,218.5-200.6c54.6-16.8,101.2-5.5,150.6,20.4c-8.5-17.3-16.1-35-24-52.5
		c-60.5-15.5-118.3-14.7-170.6,21.8c-9.6,6.7-21.1,21.1-31.4,24.5l-2.2-1.7c-1.3-11.4,6.1-26.6,9.9-37.5
		c-23.1,24.2-42.3,52.3-64.6,77.3c-26.5,29.7-59.2,57.7-82.2,90c-6.6,9.3-12.9,19.4-17.9,29.7c-5.9,12.4-10.7,35.9-19.6,45.2
		l-3.8-1.3c-1.4-3.4-1.2-6.4-0.6-10c4.3-23.2,17.8-48.7,31.2-67.9c17.4-24.9,41.8-43.4,62-65.9c23.5-26.2,69.6-91.3,94.4-108.3
		c1.7-20.6,4.3-41.1,7.6-61.5c-18.7-5.4-38.5-10-56.3-17.8c-11-4.8-21-11.6-25.2-23.2c-8-22,2.7-57.4,12-77.8
		c-5.8-8.3-15-19.2-14.1-29.9c1.2-14.2,26.7-27.7,37.5-36.2c10.5-35,30.6-72.9,59.1-96.4c36.8-30.4,88.6-36.4,134.6-31.6
		c27.3,2.9,64.3,12.7,86,29.8c7.2,5.7,13,13.5,18.8,20.6c1-1.8,2-3.6,3-5.4c13.7-23.8,29.7-37.8,56.3-44.8c12.1,3,22.4,7,32.8,13.9
		c37.3,24.6,97.2,122.1,105.1,165.4c3.8,21,0.3,41-12.6,58.2c-11.6,15.5-34.4,31-54.2,33.4c-7.3,0.9-14.9-0.3-22.1,1.5
		c-10.8,2.7-20.5,8-31.7,9.4c-10.7,1.3-20.6-2.3-28.8-9c-20.9-17-21.6-47-24-71.6c-20.9,34.4-38.8,56.9-75.2,75.5
		c-7.9,4-16.5,6.6-24.2,10.9l0.2,3.6c1.5,2.2,3,4.3,4.5,6.5c8.1,11.9,11.2,56.9,16.1,74.1c6.4,22.4,16.9,44.7,28.3,65
		c10.8,19,34.4,37.8,49,54.4c18.8,21.4,35.8,45.3,52.1,68.8c55.3,80,96.1,167.9,145,251.5c8.5,2.6,17.1,5.3,24.8,9.9
		c37.2,22.1,70.9,76.9,81.4,118.1c5.9,23.2-2.9,31.3-2,51.5c0.4,8.2,3.1,17.3,4.7,25.4c7.3,35.8,13.4,70.9-7.6,104.1
		c-30.5,48.4-154.7,123.4-212.2,133.8c-24.5,4.4-43.5-7-62.4-20.8c-27.2,19.5-51.6,32-83.3,42.4c-19.9,80.7-42,160.8-66.6,240.3
		c-16.5,55.2-34.4,110-48.8,165.7c90.7,54,172.4,348,237,446.4c4.6,7.1,10.2,15.1,16.8,20.4c28.1,22.2,121.9,44.9,135.5,69.3
		c3,5.3,2.7,9.6,1.1,15.3c-12.1,41.9-157,253-191.4,289.3c-9.4,9.9-20.9,16.5-32.6,23.1c98.7,3.9,197.9,0.6,296.7,0.9
		c6.8,0,16-0.5,21,4.6l-1.4,2.8c-2.7,0.9-3.3,1.2-5.9,1.8c-22.7,5.3-54,1.7-77.6,1.6l-150.8-0.4l-629.3-0.1l-2467,0.2
		c-16,0-51.7,3.4-64.7-5.4c-0.6-0.4-1.2-0.9-1.8-1.3c-7.6-5.4-13.5-11.6-18.6-19.4c-10.2-15.5-8.8-33.4-8.8-51.1l-0.1-2504.2
		l0.3-594l0.3-136.5c0.1-23.5-3.1-53.4,2.5-76.1C289.1,349.7,296.8,344.2,306.9,338.1z"/>
	<path fill="#FCFAF3" d="M3603.1,2193.9c2.1,0.4,3.8,0.7,5.7,1.4c5.7,1.8,10.3,7.1,12.4,12.6c2,5.3,0.4,8.8-1.9,13.4
		c-3.5-0.4-8.8-0.5-12-2c-5.1-2.4-5.9-4.3-8.3-9C3598.8,2203.7,3600.4,2199.8,3603.1,2193.9z"/>
	<path fill="#FCFAF3" d="M2693.2,3593.5c8.8,0.7,20.6,9.2,28.4,13.6c-4.6,5.3-9.2,9.5-14.8,13.6c-13.1-3-24.5-8-36.4-14
		L2693.2,3593.5z"/>
	<path fill="#E0C8CB" d="M2635.2,1747.6c3.6-0.1,6.7-0.2,10.2,0.7c19.9,5,49.7,52.8,59.9,69.3
		C2679.3,1804,2652.1,1771.5,2635.2,1747.6z"/>
	<path fill="#FCFAF3" d="M3612.3,2232c5.3-3.1,7.3-5.7,13.4-4.5c8.9,9,11.6,22.8,19.3,33.3c-4.7,4.8-8.3,8.8-14.7,11.2
		c-5.4-0.7-7.7-1.1-11.2-5.5c-5.8-7.2-9.8-24.1-11.2-33.4L3612.3,2232z"/>
	<path fill="#FCFAF3" d="M2750.2,3560.3c0.5,0.4,1,0.6,1.4,1.1c2.5,3,3,8.5,2.4,12.2c-1.9,11.3-15.2,21-23.6,27.9
		c-6.6-1.8-13.1-4.4-19.5-6.6l-12.5-2.2C2700.8,3585.9,2742.6,3564.5,2750.2,3560.3z"/>
	<path fill="#68618E" d="M3369,1422.2l0.4,0.3c-0.2,4.9-12.5,14.8-16.4,18.4c-25.5,23.1-63.3,39-97.8,37.8c-2-3.1-2.4-3.7-2.8-7.6
		C3276.3,1467.5,3349.6,1436.8,3369,1422.2z"/>
	<path fill="#FCFAF3" d="M3102.6,1327.9c4.3,0,9.7,0.1,13.7,2c4.6,2.3,6.9,5.9,8.2,10.8c3.3,11.9-8.5,31.1-13.5,41.5
		c-5.6,0.2-11.7-0.2-16.4-3.5c-4.3-2.9-6.2-6.9-7-11.9C3085.3,1353.3,3095.2,1338.5,3102.6,1327.9z"/>
	<path fill="#FCFAF3" d="M3350.9,3610.1c6-20.5,15.1-39.8,20.7-60.4l7,1.6l-2.7,5.4c4.1,10,18.1,7.7,17,20.4l-1.5,2.6l0.7,3.7
		c0.6,3.4,1.6,6.5,2.9,9.7c-0.9,5.7-0.8,6.5-5.6,10.1c-2.2,1.6-5.7,3.6-8.3,4.2l-0.3,8.8C3370.5,3615.8,3360.8,3612.7,3350.9,3610.1
		z"/>
	<path d="M3391.4,3579.7l0.7,3.7c0.6,3.4,1.6,6.5,2.9,9.7c-0.9,5.7-0.8,6.5-5.6,10.1c-2.2,1.6-5.7,3.6-8.3,4.2l0.9-9.1
		c-2.5-4.6-6.2-6.3-10.5-8.9c-2.8-1.6-1.7-0.4-3-3.6c6.7-1.5,14.5-0.1,20.3-4.2C3389.7,3581,3390.5,3580.4,3391.4,3579.7z"/>
	<path fill="#FCFAF3" d="M2476,1555.3c34.5,6.5,68.6,18.6,102.2,28.7c57,17.6,114.3,34.1,171.9,49.5l-13.9,12.2
		c-2.1,0.4-3.1,0.7-5.4,0.7c-14.9,0-235.9-66.7-256.2-74.4c-4.4-1.7-2.8-0.7-6.1-4.2C2469.4,1561.4,2471.7,1560,2476,1555.3z"/>
	<path fill="#FCFAF3" d="M2751.6,1641.3c3.4,1.5,2.5,0.9,5.3,3.1c18.6,14.8,54.1,66.8,70.4,87.7l118.5,148.7
		c21,25.7,42.2,51.3,63.6,76.6c7.1,8.4,15.1,16.2,21.8,24.9c2.7,3.6,2.2,3.2,2.5,7.2c-2-0.1-4.1-0.3-6.1-0.6
		c-6.8-1-11.6-6.6-16-11.4c-67.8-73.7-127.7-155.9-190.1-234.2l-50-62.5c-6.5-8.1-16-17.5-20.9-26.5
		C2747.5,1648.9,2749.4,1646.8,2751.6,1641.3z"/>
	<path fill="#FCFAF3" d="M2765.8,3513.4c43.9,5,85.6,5.7,129.7,3.5c-1.9,13.9-2,30.2-6.5,43.4l-4.8,2.3
		c-43.9,15.3-75.2,16.5-120.8,6.8C2765,3550.6,2765.6,3532.1,2765.8,3513.4z"/>
	<path fill="#FCFAF3" d="M3453.7,3329.6c8.2,11,18.1,19.1,28.8,27.6c-1.6,5.6-3.1,11.1-5.1,16.6c-9.8,28-36.7,66.3-64.2,78.6
		c-5.7,2.5-11.2,4.3-17.2,1.8c-10.1-16-20.8-31.4-31.7-46.8C3400.1,3388.9,3426.7,3358.7,3453.7,3329.6z"/>
	<path fill="#FCFAF3" d="M3166.3,1218l3.1,1.4c19.5,27.1,18.1,94.4,30.5,129.9c-19.3-3-45.1,1.2-59-14c-0.3-0.3-0.7-0.7-1-1
		c-15.3-14.6-26.9-16.3-47.2-15.8C3104.5,1275.5,3128.8,1241.8,3166.3,1218z"/>
	<path d="M3117.6,1297.4c2.5-0.2,5-0.4,7.5-0.4c7.4,0,15.3,2.9,20.5,8.3c6.8,7.2,7.4,15.2,6.7,24.7c-2.5-1.1-2.7-1.1-5.3-2.8
		C3137.7,1321.2,3120.2,1307.9,3117.6,1297.4z"/>
	<path fill="#FCFAF3" d="M3363.6,1722.1c5.1,5,12.9,18.7,13.3,25.7l-5,1.2c-7.9,8.7-9.1,64.8-10.5,79.2
		c-8.6,87.3-26.7,174.2-40.3,260.9c-8.6-5.8-16.5-12.8-24.6-19.2c-10.4-8.5-20-17.9-29.8-27.1
		C3325.7,1952.4,3358.9,1829.1,3363.6,1722.1z"/>
	<path fill="#FCFAF3" d="M2852.3,2098.7l15.6,10.6c-4.7,55.3-8.2,111.1-11.5,166.5c-2.2,36.6-2.9,73.8-8.9,110l-24.3-8.6
		c-4.7-3.3-9.7-6.5-13.7-10.6c-6-6.1-8.6-13.2-8.4-21.6c0.5-24.9,10.3-51.8,16.9-75.8C2833.7,2212.7,2850.4,2157.7,2852.3,2098.7z"
		/>
	<path fill="#7AAED7" d="M2877.3,2114.4c22.8,14.7,47.1,27.4,71.2,39.8c-0.1,27,3.2,102.6-1.6,124l-3.7,0.9
		c-25.4-8.5-50.2-18.7-75.1-28.6C2870.6,2205.2,2874.3,2159.8,2877.3,2114.4z"/>
	<path fill="#FCFAF3" d="M2522.3,3669.6c6.4,1.8,19.6,30.6,27.3,37.6c3.7,3.4,8.4,6.3,13.4,7.2c26.7,4.6,58,1.4,85.2,1.3
		c59.1-0.3,118.6-0.4,177.6-3.5c28.2-1.5,56.3-5.2,84.5-7.1c-2.7,8.3-6.6,20.3-12.6,26.9c-5.8,6.3-10.5,6.2-18.4,6.7l-250.3,0.3
		c-45.4,0.1-91.7,1.9-137-0.6c-5.9-4.7-12.4-9.9-15.8-16.8c-3.1-6.3-3.7-12.7-1.2-19.4C2481.3,3684.8,2506.9,3676,2522.3,3669.6z"/>
	<path fill="#FCFAF3" d="M3578.3,3399.3c7.3,2.7,17.1,5.3,22.6,10.9c2.4,2.5,3.7,5.7,3.8,9.1c0.3,33.2-156.2,252.3-183.9,283.7
		c-13,14.7-31.1,20.2-44.1,33.7c-0.4,0.4-0.8,0.8-1.1,1.2l-63.5,0.2c-3.1-0.1-5.8,0.3-8.5-1.3c-6.2-3.7-12.7-12.1-14.1-19.3
		c-1-4.9-0.1-5.8,2.6-9.6c11.8-6.4,69.8-2.5,87.4-2.8c43-29.9,149.7-203.7,177.5-256.3C3565.4,3433,3572.5,3416.4,3578.3,3399.3z"/>
	<path fill="#E0C8CB" d="M2683.4,1745.7c18,10.8,73.6,83.1,85.8,101.6c8.1,12.3,15,25.7,22.1,38.7c-26.9,19.1-49.6,41.3-71.6,65.7
		c-31.7-22.2-69.4-51-90.9-83.6c-8.6-13.1-16-26.2-12.6-42.4l1.9,0.6c6.5,11.6,14,22.9,21.9,33.6c5.2,7.1,15,18.7,23.8,20.1l0.6-3.8
		c-2.5-8.8-8.5-14.3-14.5-20.8c-11.2-13.4-23.2-29.6-30.2-45.6c-3.5-7.9-10.4-22.4-7.2-30.5c10.5,4.7,30.1,35.9,39,46.4
		c5.8,6.9,13.7,17.7,23,18.5l2.5-3.1c-2-8.1-42.4-48.8-51.7-63.3c-5.2-8-9.7-15.3-7.6-24.9l4.5-2.8c8,0.8,18,18.1,23.6,24.7
		c26.2,30.9,51.6,51.6,87,71.4c-9.6-25.4-28.3-46.2-42.6-69C2681.9,1764.5,2680.1,1760.7,2683.4,1745.7z"/>
	<path fill="#EF7067" d="M3325,2191.5c31.7,11.8,68,17.2,89.1,46.1c27.6,37.7,64.9,123.9,70.6,169.7c1.2,9.5-0.1,18.4-1.4,27.8
		c-0.6,0.3-1.1,0.7-1.8,1c-9.5,3.8-23.3-2.3-31.8-6.4c-4.1-2-8-4.2-11.8-6.6c-3.8-2.4-7.4-5.1-10.9-8s-6.8-6-9.9-9.2
		c-3.1-3.3-6-6.7-8.7-10.3C3379,2355.6,3343.3,2243.4,3325,2191.5z"/>
	<path fill="#68618E" d="M3429,1205.2c5.8-0.9,11.2-1.3,16.7,0.7c43.8,15.8,85.6,88.8,104,128.7c11.1,24.2,20.3,53.3,9.8,79.3
		c-6.6,16.3-24.5,30-40.7,36.4c-4,1.6-4.6,2.1-8.6,0.3c8.6-17.6,26.7-25.6,32.8-46.1c6.2-21.2,0.5-38.9-9.3-57.6
		c1.6,9.8,3.8,19.7,4.6,29.6c3.1,36.4-16.1,53.9-37.9,79.6c23.4-47.4,23.9-96,7.7-146.2c-2.1-5.5-4.5-10.9-7.1-16.3
		c-15-31.1-33.8-52.5-67.3-64.2c33.6,24.6,57.9,55.1,69.8,95.5c9.4,31.8,15.7,80-1.7,109.9c-11.6,20.1-29.6,27-50.8,32.5
		c-13.8-4.4-22.9-10.2-29.7-23.4c-18.1-35.1-2.1-73.6-6.1-110c-1.2-10.6-5.4-21.6-8.7-31.8c-3.8-11.9-19.4-43.9-15.7-54.7
		c0.2-0.7,0.6-1.3,0.8-2C3398.5,1227.3,3413.1,1215.3,3429,1205.2z"/>
	<path d="M3405.2,1249.4c2.9-0.1,5.8,0.4,8.7,0.7c17.2,10.4,29.3,31.7,38.9,48.8c20.9,37.1,34.2,87.5,22.6,129.5l-4.4,0.4
		c-3.8-7.1-1.2-25.5-1.1-34.2C3470.6,1334.9,3441.2,1293.8,3405.2,1249.4z"/>
	<path fill="#EF7067" d="M3226.6,1606.1c21.3-2.3,44,1.5,64.2,8.2c20.5,6.9,40.9,17.3,57.7,31.1c87.8,71.9,184.5,255.9,236.6,359.9
		c-23.9,6.3-46.4,15.7-68.9,25.9c-36.8-102.6-88.7-221-143.5-314.8c-21.2-33-48.3-67.3-85.6-82.7c-35.7-14.7-76.1-11.6-111.2,3.1
		c-82.2,34.5-156.5,111.8-196.3,191c-8,16-12.2,33.7-18.9,50.3l-1.7-3.3l1,4l-3.2-0.4l-2-3.3c-3.1-35.9,40.2-99.7,61.3-127.2
		C3066.7,1681.7,3141.4,1617.4,3226.6,1606.1z"/>
	<path fill="#FCFAF3" d="M3493.5,3361.7c24.9,10.4,52,19.8,74.4,35c-6.2,16-12.5,31.9-20.5,47.1c-28.8,54.8-128.6,215.3-170.1,251.2
		c-22.9,0.2-46,1.1-68.8-2c14.5-24.3,27.8-48.7,38.4-75.1c11.3,4.3,22.3,12.2,33.7,14.9l3.5-1.6c1-5.2-0.8-10.2-3.4-14.9l0.3-8.8
		c2.5-0.7,6.1-2.6,8.3-4.2c4.8-3.6,4.7-4.4,5.6-10.1c-1.3-3.3-2.2-6.3-2.9-9.7l-0.7-3.7l1.5-2.6c1-12.7-13-10.4-17-20.4l2.7-5.4
		l-7-1.6c4.6-16.4,8.6-33.8,14.9-49.7l2.4,1c8.6,3.6,15.3,7.8,22.9,13.3l3.5-0.6c2.2-4.4,3.1-5.7,2.9-10.6
		c-7.8-8.2-20.9-9.5-31.6-11.7c2.8-6.5,5.4-13.4,8.8-19.7c43-16.3,71.1-47.9,89.9-89.4C3488.3,3375.6,3490.9,3368.6,3493.5,3361.7z"
		/>
	<path d="M3343.8,3640.9c7.4,0.5,16.4,1.2,23.4,3.9c7.4,2.9,11.1,7.3,14.4,14.3c-7.4,1.6-16-1.1-22.8-3.9
		C3351,3651.9,3347.1,3648.8,3343.8,3640.9z"/>
	<path d="M3378.6,3551.3c5.5,2.7,12.3,7.2,18.4,6c3.2-4.2,3.2-4.9,3.5-10.2c-3.1-8.4-9.8-14-16-20.3l1-1.9
		c8.7,0.3,23.3,2.5,29.3,9.5c2.7,3.2,2,3,1.3,6.6c-3.5,3-6.8,5.6-10.6,8.2c-3.7,9.8,0.7,22.1-9.5,27.9l-3.1,0
		c1-12.7-13-10.4-17-20.4L3378.6,3551.3z"/>
	<path fill="#FCFAF3" d="M3378.1,1752.8c27.7,27.2,113.5,240.4,128.1,283.8c-28.9,14.2-57.9,28.5-87.6,41
		c-24.9,10.9-49.2,22.9-74.4,32.8l-16.5-15c10.6-30.3,13.7-64.4,18.8-96c7.8-46.1,14.7-92.4,20.8-138.8
		C3371.5,1824.7,3374.1,1788.7,3378.1,1752.8z"/>
	<path fill="#FCFAF3" d="M3070.2,1341.9l0,2.8c0,1.3,0,2.7,0,4c0,2.3-0.2,4.5,0,6.8c1,10.3,7,24.4,15.5,30.9c0.6,0.5,1.3,0.9,2,1.4
		c0.7,0.4,1.4,0.8,2.1,1.1c0.7,0.3,1.5,0.7,2.2,0.9c0.8,0.3,1.5,0.5,2.3,0.7c0.8,0.2,1.6,0.3,2.4,0.4s1.6,0.2,2.4,0.2
		c0.8,0,1.6,0,2.4-0.1c0.8-0.1,1.6-0.2,2.4-0.3c17.2-2.9,27.4-19.3,36.5-32.5l33,8.8c0.5,9.7-0.3,31.8,5.2,39.5
		c27.6-24.2,14.2-27,57.2-38.4l-0.5-0.3c0.5,0.1,1,0.2,1.5,0.3c6.8,2.3,19.7,7.9,22.6,15.2c3.6,9,1.6,18.3-2.7,26.7
		c-23.3,45.3-47.5,17.3-67.3,23.2l-0.2,2.9c1.2,1.7,1.6,2.4,3.4,4c10.5,9.3,31.7,5.2,44.7,4.4c0.3,8.1,0.3,16.8,2.3,24.6
		c8.8,33.6,35.2,5.9,52.5,18.4c13.7,9.8,14.5,48.9,17.2,65.1c0.2,4.2,0.6,2.2-1.6,6c-9.7,0.6-18.6-2.8-28.2-4.4
		c-62.2-10.2-106.1,3.2-156.5,39.7c4.6-28.5,7.7-58.4,15.6-86.2c5.2-2.4,11.7-4.4,14-9.7c-11.4-9.4-77.2-9.6-94.8-28.6
		c-9.7-10.5-4.1-36.9-2.9-49.7c13.1,5.3,24,10.5,38.4,11.1l-1.8-0.5l3.2-5.1c-12.4-9-22.2-11.7-36.9-14c13.6-38.6-7-38.6-3-56.4
		C3058.8,1348.7,3064.1,1345.8,3070.2,1341.9z"/>
	<path d="M3230.8,1392.6c4.3-0.3,7.3-0.2,11.4,1l-0.9,2.2c-5.6,3.6-11.6,6.9-15.1,12.7c-0.7,1.1-1.3,2.3-1.9,3.4l-1.5,1.1l-3.8-1.1
		c-2.6-4.4-2.9-4.4-2.2-9.4C3220.2,1396.6,3224.9,1395.2,3230.8,1392.6z"/>
	<path fill="#FCFAF3" d="M2889.1,3572.4l4,0.3c14.6,20.5,14,95.4,15.4,122.3c-75.4,10.1-152.8,9.9-228.8,10.4
		c-38.4,0.2-77.3,1.9-115.6-0.7c-13.9-10.8-21.3-23.3-27.1-39.6c31.6-14,64.8-23.7,96.1-38.3c12.2-5.9,24-12.8,35.8-19.3
		c5.9,6.3,12.9,12.5,16.5,20.4c-1,1.3-2.6,3.5-4,4.4c-10.5,7-20-5.4-30.4-6.2c1.4,3.7,0.7,2.7,2.7,5.3c3.4,4.2,5.4,6.3,6.1,11.9
		l-2.4,2.7c-11,0.9-23.2-5.3-34.2-7.3l-2.5,1.8c2.9,5.2,11,5,12.5,10.6c-8.3,3.9-18.6-1.4-27.5,2.8c0,4.3,0.5,3.7,3.1,6.7
		c13.3,0.9,30.1,0,43.3-2.6c3.8-0.7,5.3-3.6,7.4-6.4c2.1-2.8,3.6-5,6.5-7l5.8,2.5c6.6-1.4,11.1-9.4,16.9-13.2
		c3.2,1.2,6.4,2.3,9.6,3.4l2.9-1.8l-1-5c26.9-10.5,47.3-26,63.8-49.7C2810.8,3589.5,2843.6,3587,2889.1,3572.4z"/>
	<path d="M2865.5,3626.2c2.6,1,2.8,2.4,4.3,4.7c-0.4,2.4-0.4,2.7-1.4,5.3c-5.8,13.9-28.4,23.6-41.6,28.9c-2.3-2.2-1.1-0.7-3.1-4.8
		C2828.5,3651.2,2854.9,3639.2,2865.5,3626.2z"/>
	<path fill="#68618E" d="M3221.1,1201.8c29-4.3,66.5,0.3,94.1,10.5c32.6,12,54.2,30.6,68.7,62.4c14.3,31.5,22.9,72.6,9.5,105.6
		c-17.7,43.6-82.2,59.1-122.5,76.8l-21.5,7.8l-1.8-27.1c1-0.6,2-1.1,2.9-1.8c9.5-7.4,19.4-23.5,21.5-35.5c2-11.3-6.2-20.7-12-29.4
		c-0.6-0.2-1.2-0.5-1.8-0.7c-5.4-1.9-9.6-3.4-14.6-6.3l1.2-1.4c2.7,0.2,3,0.1,6,1c9.4,2.9,17,10.1,21.4,18.6c0.3,0.5,0.5,1,0.8,1.6
		l1.7-2c0.9-6.1,0.7-11.2-3-16.3c-11-15.1-39.6-11.8-56.4-15.4l-2.6-0.6c-14.3-27.2-14.7-59.3-19.8-89.1
		c-2.8-16.5-6.9-32.6-11.7-48.6C3194.5,1207.8,3207.3,1204.2,3221.1,1201.8z"/>
	<path d="M3393.7,1329.8l1.5,1.6l-0.2,5.2c-12.8,22.9-41,42.9-64.1,54.4l-2.5-3.1C3331.6,1380.7,3384.1,1339.6,3393.7,1329.8z"/>
	<path d="M3295.3,1237c13.7-1.6,26.8,0.9,40.3,3.1c-28.9,6.4-60.1,9.3-89.6,12.4l-40.6,5.2C3232.9,1245.5,3265.7,1241.1,3295.3,1237
		z"/>
	<path d="M3380,1285.3l1.6,1.4c-0.8,2.1-0.7,2.3-2.3,4.4c-12.8,16.8-87,33.9-109.2,38.7l-1-0.8l0.1-2.4c9-4.9,18.9-7,28.4-10.6
		C3325.2,1306,3353.3,1297.2,3380,1285.3z"/>
	<path d="M3356.8,1266.4c1.6,0,3.3,0.9,4.7,1.4l-0.9,2.5c-33.4,12.6-75.2,18.3-110.7,21.6l-3.9-3.3
		C3254.9,1280.3,3339.9,1268.6,3356.8,1266.4z"/>
	<path fill="#EF7067" d="M3259.9,2052.3c21.3,13.5,51.7,45.5,71.6,63.7c17.6,16.1,38.3,27.3,56.8,42.3c30.4,24.7,49.3,58.3,71.2,90
		c18.1,26.3,36.5,45.3,69.1,51.4c27.8-8.1,50.9-26.7,72.6-45.2c5.2,12.2,8.7,24,21.7,30c5.4,2.5,11.8,3.4,17.4,0.8
		c4.8-2.2,8.3-6.6,10.4-11.4c6.6-14.9,0.3-26.8-5.6-40.5c14.5-12.6,30.3-22.7,44.3-36.2c3.2,5.4,6,10.9,7.6,17
		c8.9,33.5,8.3,65.1-9.1,95.7c-37.1,51.9-132,102-191.7,124.2c1-7.5,2.2-15.1,1.6-22.6c-3.7-43.6-56.1-168.7-88.9-196.6
		c-23.2-19.8-57.7-21.6-83.9-36.5c-29.1-16.6-72.1-60.4-98.8-83.7L3259.9,2052.3z"/>
	<path fill="#FBBE56" d="M2479,1584.8c26.4,4.2,54.6,15.7,80.2,23.6l125.1,37c12.4,3.7,30.4,12.6,43.1,12.8c2.4,0.1,5.1-0.2,7.6-0.3
		l3.7-0.1c21.4,20.7,48.4,60.3,68.1,84.9c63.7,79.3,124.7,159.6,192,235.9c-7.2-2.2-14.3-5.2-21.3-7.9
		c-39.2-16.8-77.2-40.7-113.7-62.9c-13.3-8.1-26.7-18.2-40.5-25.1c-7.2-3.6-18.3-1.9-24.6-5.3c-9.2-5-18.9-35.1-25.9-44.7
		c-9.3-12.8-22-23.1-32.2-35.3c-13.8-16.5-24.4-38-40.7-52c-5.6-4.8-10.6-7.2-18.2-6.7c-6.2,2.9-7.9,7.9-10.8,13.7
		c-8.6-7.5-17.1-13.6-26.9-19.5c-11.8,3.4-23.6,6.9-35.2,10.7c-17.8-18.6-33.7-39.4-50.1-59.3
		C2531.5,1651.5,2504.5,1618.9,2479,1584.8z"/>
	<path fill="#7AAED7" d="M2958.1,2293.5c132.1,69,278.7,124.1,429.2,88.6c8.4,13.7,17.8,26.1,28.1,38.5c-9.4,7-19.4,12.9-29.5,18.9
		c-20,10.5-41.6,17.3-63.3,23.4c-120.9,33.9-246.7,11.1-365.4-21C2957.2,2392.4,2957.5,2342.9,2958.1,2293.5z"/>
	<path fill="#EF7067" d="M3351.8,2120.3c20.8-11.8,44.6-20.7,66.4-30.8c34.4-16,141.7-72,175-73.1c15.1-0.5,29.5,9.2,40,19.1
		c27.9,26.3,61.3,76.2,61.8,115.9c0.4,33.6-33.6,55.2-54.3,77.1c-2.5-7.6-4.6-16.2-8.1-23.4c-3.9-8-12.4-20.5-22-22.5
		c-4.4-0.9-7.8,0-11.5,2.3c-5.1,3.2-8.1,9.4-9.5,15.1c-1.9,8-0.8,16,4.1,22.7c4.1,5.5,12,8.6,18.5,9.3l-4.4,1l-4.3-0.4
		c-1.4,1.9-2.8,3.8-4.2,5.8c-13.8,19.4-41.5,41.5-64.6,48.4c-46.5,14-89.2-84.3-113.5-112.2
		C3401.7,2151.9,3377.5,2135.4,3351.8,2120.3z"/>
	<path fill="#FCFAF3" d="M3219.4,2103.2c29.7,27.5,62.1,52.2,91.5,80.1c16,60.6,46,130.4,71.3,188.1
		c-83.7,28.2-179.3,5.1-261.9-17.2c-28.2-9.2-55.8-19.9-82.8-32c-27-12.2-53.3-25.7-78.9-40.7c-1.3-40.8-0.3-81.8-0.3-122.6
		c40.7,20,89.3,40.6,135.7,36.8C3152,2190.9,3184.4,2143.4,3219.4,2103.2z"/>
	<path d="M3232.5,2162.6l4.2,2c0.9,1.7,1.3,2.3,1.8,4.4c2.2,11.1,2.1,175.2-0.1,180.5c-0.8,1.9-2.3,3.4-3.5,5.1
		c-1.5-1.1-2.7-1.6-3.6-3.3C3226.1,2342.2,3228.4,2179.2,3232.5,2162.6z"/>
	<path fill="#68618E" d="M3325.4,2473.2l2,2.4c-20.1,93.9-50.1,185.7-77.2,277.7c-11.5,39-24.9,78.4-32.9,118.3
		c-4.3,0.6-8.6,1.2-13,1.9c-16.2,2.7-49.8,9.4-59.3,22.7l1.5,2.7c15.5,1.5,32.8-9.3,48-12.6c9.3-2,18.6-1.8,28-1.5
		c16.6,9.5,27.7,20.6,38.7,36.2c29.4,41.7,49.6,91.1,70.7,137.5c39.6,87.2,75.3,175.9,117.9,261.8c-29.6,30.1-54,60.1-93.3,77.9
		c-7.2-8.9-15-17.4-22.6-26L3104.4,3129c-39.5-41.3-77.4-86.1-121.2-122.9c1.4-24.4,1.1-48.7,0.9-73.2c27.3-34.7,53.7-70,79.1-106
		c25.5-36,50-72.7,73.6-109.9c23.6-37.3,46.2-75.1,67.9-113.6c21.7-38.4,42.3-77.4,62-116.9C3286.5,2483,3306,2477.8,3325.4,2473.2z
		"/>
	<path fill="#FCFAF3" d="M3220.5,1635.3c5-0.5,10-0.8,15.1-0.8c34.1-0.2,65.4,12.9,89.4,37c17.6,17.7,28,36,27.8,61.6
		c-0.7,86.4-37.5,206.7-81.3,281.9c-21.7,37.2-81.3,110-112.6,139.7c-21.2,20.2-46.8,31.9-76.5,30.9
		c-100.6-3.2-299.6-136.8-366.5-209.2c21.8-35.9,55.1-67.4,91.2-88.7c38.9,16.3,75.4,43.7,112.2,64.5c33.3,18.8,65.2,31,99.9,46.3
		c23.4,10.3,6.8,10.1,13.1,26.2c5.4,2.1,7,0.2,12.2-2c12,9.6,11.4,32.7,18.8,45.9c0.6,1,1.2,2.1,1.8,3.1c3.8-1.6,3.3-0.9,6-4.8
		c-0.8-19.2-11.3-34.8-14.5-53c-0.8-4.5-0.8-4.7,1.7-8.6c0.7,0,1.4-0.1,2.1,0c25.1,3.2,40.4,44.9,55.5,62l1.5-1.2
		c-0.9-6.9-2.5-13.3-4.9-19.8c-10.1-27.2-29.8-43-55.2-54.5c24-65.2,43.8-132,69.3-196.7c19.3-49,57.1-107.5,111.8-121.9
		c15.2-4,34,2,48.2-4.2c-2-3.8-5.5-4.7-9.5-6c-18.2-6-41.5-0.6-58.4,7.3c-80.6,37.7-104.9,126.4-131.1,203.9
		c-12.3,36.7-25.2,73.2-38.6,109.6c-31.3-26.3-53.2-63.6-80.2-94.1c11.9-35.9,24-70.3,45.4-101.8
		C3059.6,1721.3,3139.1,1650.9,3220.5,1635.3z"/>
	<path d="M3079.9,2075.7c2.6,0.6,5.4,0.5,7.1,2.9c5.7,7.7,10,48.4,9.4,59.3c-2.4-0.7-4.8-1.6-7.2-2.5
		C3080,2122,3078.3,2091.5,3079.9,2075.7z"/>
	<path fill="#FCFAF3" d="M2982.7,3019c78.9,77.1,153.2,158.2,228.9,238.2c51.8,54.8,139.6,139.9,177,202.6
		c-21,58.8-35.5,120-61.9,176.8c-6.2,13.3-13.1,31.3-22.1,42.7c-7.1,9-23.2,19.3-26.6,30c-2.2,6.8,0.4,10.6,2.7,17l10.6,12.2
		c-128.7,0.9-257.4,0.8-386.1-0.2l15.1-19.3c0.7-38.5-3-81.7-8.2-119.8c-2-14.8-10.4-29.9-9.4-44.8c3.9-58.1,21.2-113.9,31.3-171
		C2955.5,3261.9,2974.3,3142.2,2982.7,3019z"/>
	<path fill="#FCFAF3" d="M316.8,347.9c5.4,1.1,10.5,2.1,14.7,6c9.8,9.1,6.6,49,6.6,62.4l-0.4,3279.1l1440.2-0.1l437.4,0
		c83,0,166.3-1.7,249.2,0.8c-0.7,5.6-1.5,11.5-1.3,17.1c0.4,12.2,7,18.4,15.4,26.2l-29.3,0l-1562.6,0.4c-63.1,0-551.1,2.6-562.6-2.1
		c-11.8-4.8-23.2-16.7-27.4-28.8c-5.9-17-2.6-379.2-2.6-420.5l0.3-1515l-0.9-963.2l0.9-303.8l0.4-92.3c0-13.6-1.3-27.8-0.2-41.3
		c0.4-4.4,1.5-10.3,4.1-14.1C303.4,351.3,308.8,349.8,316.8,347.9z"/>
	<path fill="#68618E" d="M2867.5,2261.8c26.9,10,54,19.8,81.1,29.2c-0.9,53-1.3,106.1-1.1,159.2c26.4,6,52.3,13.7,78.8,19.4
		c76.1,16.3,150.5,21.9,228.3,18.6c-64.1,123.5-133.5,245.2-216.2,357.4c-17.4,23.6-34.7,50-55,71.1c-23.6,24.6-51.8,19.8-82.9,20.6
		l-2.3-6.3l-1.9,0l-1.1,6.8c-0.2,1.3,1.2,2.3,1.8,3.5c20,10,56.9,3.1,77.4-3c2.6,97.6-11.4,217.6-27.9,314.2
		c-12.3,85.4-30.7,170.2-49.2,254.3c-45.1,3.2-87.7,1.7-132.7-1.2c-10.2-114.7-19.1-229.6-26.5-344.6c-7.5-111.3-22-227.3-1.2-337.6
		c20.7-110.1,56.3-219.5,88.3-326.7c9.9-33.1,25.5-69.1,32.4-102.4C2865.6,2355.2,2865.5,2302.1,2867.5,2261.8z"/>
	<path fill="#7AAED7" d="M2013.5,2725c108,0.1,216.8-3,324.7,0.5l1.1,574.8c0.3,127.8,2.3,256-0.4,383.7l-324.6,0.6L2013.5,2725z"/>
	<path fill="#B1C995" d="M1604.4,1977.5c109-0.6,218.1-0.6,327.1,0.1l0,1337.7l0.1,282c0,13.1,2.6,73.5,0.2,82.7
		c-0.4,1.4-1.4,2.5-2.1,3.7l-5.4,0.5l-326.1,0.4c-1.5-70.2-0.3-140.6-0.4-210.8l0.2-436.6l-1.9-1038.6c0-6.3-1.1-15.1,2.5-20.1
		L1604.4,1977.5z"/>
	<path fill="#FBBE56" d="M1184.8,1269.8c109.9,4.5,221,0.9,331,1.2l1.5,1588l-0.1,529.1c-0.1,98.6,3.3,198.5-1.7,296.9l-331.9-0.5
		l0.7-1712.5C1184.8,1738,1187.2,1503.8,1184.8,1269.8z"/>
	<path fill="#EF7067" d="M758.4,605c114.5-2,229.3-0.2,343.8-0.1l1.2,3079.9c-115.2-1.7-230.5,0-345.7,0.4l-0.4-445.1l0.8-844.6
		L758.4,605z"/>
</g>
</svg>
