<?xml version="1.0" encoding="utf-8"?>
<!-- Generator: Adobe Illustrator 27.1.0, SVG Export Plug-In . SVG Version: 6.00 Build 0)  -->
<svg version="1.1" baseProfile="basic" id="Layer_1"
	 xmlns="http://www.w3.org/2000/svg" xmlns:xlink="http://www.w3.org/1999/xlink" x="0px" y="0px" width="24px" height="24px"
	 viewBox="0 0 24 24" xml:space="preserve">
<path fill="#111214" d="M14.1,2.7c-1.4-0.5-2.8-0.4-4.2,0l0,0c-0.6,0.2-1,0.7-1.1,1.2L8.5,5.5C8.2,6.7,8.1,7.3,7.6,7.7
	c-0.4,0.4-1,0.5-2.3,0.8L3.9,8.8C3.4,8.9,2.9,9.3,2.7,9.9l0,0c-0.5,1.4-0.5,2.8,0,4.2l0,0c0.2,0.6,0.7,1,1.2,1.1l1.4,0.3
	c1.3,0.3,1.9,0.4,2.3,0.8c0.4,0.4,0.6,1.1,0.8,2.3l0.3,1.4c0.1,0.6,0.5,1.1,1.1,1.2l0,0c1.4,0.5,2.8,0.5,4.2,0l0,0
	c0.6-0.2,1-0.7,1.1-1.2l0.3-1.4c0.3-1.3,0.4-1.9,0.8-2.3c0.4-0.4,1.1-0.6,2.3-0.8l1.4-0.3c0.6-0.1,1.1-0.5,1.2-1.1l0,0
	c0.5-1.4,0.5-2.8,0-4.2l0,0c-0.2-0.6-0.7-1-1.2-1.1l-1.4-0.3c-1.3-0.3-1.9-0.4-2.3-0.8c-0.4-0.4-0.6-1.1-0.8-2.3l-0.3-1.4
	C15.1,3.4,14.7,2.9,14.1,2.7L14.1,2.7z"/>
</svg>
