<svg width="20" height="20" viewBox="0 0 20 20" fill="none" xmlns="http://www.w3.org/2000/svg">
<path fill-rule="evenodd" clip-rule="evenodd" d="M12.8607 3.35095C11.255 1.83484 8.74528 1.83484 7.13958 3.35095C7.09595 3.39214 7.04806 3.44003 6.9777 3.51039L6.09481 4.39328C3.79467 6.69343 2.1905 9.59612 1.46683 12.7675C1.02629 14.6981 2.23932 16.619 4.17187 17.0509L5.06427 17.2504C5.45392 17.3375 5.66137 17.3839 5.8682 17.4257C8.59518 17.9775 11.4051 17.9775 14.132 17.4257C14.3389 17.3839 14.5463 17.3375 14.936 17.2504L15.8284 17.0509C17.7609 16.619 18.9739 14.6981 18.5334 12.7675C17.8097 9.59612 16.2056 6.69343 13.9054 4.39328L13.0226 3.51045C12.9522 3.44007 12.9043 3.39214 12.8607 3.35095ZM9.16679 11.6666V5.83325H10.8335V11.6666H9.16679ZM9.37512 12.8124C9.23989 12.88 9.13024 12.9897 9.06262 13.1249C8.8659 13.5184 8.8659 13.9815 9.06262 14.3749C9.13024 14.5101 9.23989 14.6198 9.37512 14.6874C9.76857 14.8841 10.2317 14.8841 10.6251 14.6874C10.7604 14.6198 10.87 14.5101 10.9376 14.3749C11.1343 13.9815 11.1343 13.5184 10.9376 13.1249C10.87 12.9897 10.7604 12.88 10.6251 12.8124C10.2317 12.6157 9.76857 12.6157 9.37512 12.8124Z" fill="#EF4444"/>
</svg>
