<svg width="24" height="24" viewBox="0 0 24 24" fill="none" xmlns="http://www.w3.org/2000/svg">
<path fill-rule="evenodd" clip-rule="evenodd" d="M17.2865 18.7005L20.2931 21.7072L21.7074 20.293L3.70735 2.29297L2.29314 3.70718L5.02688 6.44093C4.84433 6.5908 4.66545 6.74743 4.49057 6.91082C4.1423 7.23621 3.76366 7.65694 3.10142 8.39279L2.38077 9.19352C2.23847 9.35163 2.11812 9.5282 2.02299 9.71847C1.30484 11.1548 1.30484 12.8454 2.02299 14.2817C2.11813 14.472 2.23847 14.6486 2.38077 14.8067L3.10139 15.6074C3.76365 16.3432 4.14229 16.764 4.49057 17.0894C8.03179 20.3979 13.2129 20.935 17.2865 18.7005ZM14.677 16.091L13.1426 14.5567C12.3085 14.7798 11.4251 14.7543 10.6022 14.48C10.0914 14.3097 9.69061 13.9089 9.52036 13.3981C9.24606 12.5753 9.22049 11.6918 9.44363 10.8577L7.90931 9.32335C7.79453 9.52734 7.69835 9.74349 7.62299 9.96956C7.18365 11.2876 7.18365 12.7126 7.62299 14.0306C7.99232 15.1386 8.86175 16.008 9.96973 16.3773C11.2878 16.8167 12.7127 16.8167 14.0308 16.3773C14.2568 16.302 14.473 16.2058 14.677 16.091Z" fill="#BABBBE"/>
<path d="M20.8988 15.6076C20.5259 16.022 20.2429 16.3365 20.0046 16.5902L16.5972 13.1828C16.7972 12.1151 16.724 11.0091 16.3775 9.96956C16.0082 8.86158 15.1387 7.99215 14.0308 7.62282C12.9912 7.27631 11.8852 7.20309 10.8175 7.40317L8.0821 4.66771C11.8977 3.21524 16.3547 3.96294 19.5099 6.91082C19.8581 7.23621 20.2368 7.65694 20.899 8.39279L21.6197 9.19352C21.762 9.35163 21.8823 9.5282 21.9774 9.71847C22.6956 11.1548 22.6956 12.8454 21.9774 14.2817C21.8823 14.472 21.762 14.6486 21.6197 14.8067L20.8988 15.6076Z" fill="#BABBBE"/>
<path d="M14.4801 10.602C14.5482 10.8062 14.6009 11.014 14.6384 11.224L12.7763 9.36196C12.9863 9.39939 13.1942 9.45214 13.3983 9.52019C13.9091 9.69044 14.3099 10.0912 14.4801 10.602Z" fill="#BABBBE"/>
</svg>
