<svg width="24" height="24" viewBox="0 0 24 24" fill="none" xmlns="http://www.w3.org/2000/svg">
<path d="M10.6022 9.51987C11.5097 9.21737 12.4908 9.21737 13.3983 9.51987C13.9091 9.69012 14.3099 10.0909 14.4801 10.6017C14.7826 11.5092 14.7826 12.4903 14.4801 13.3978C14.3099 13.9086 13.9091 14.3094 13.3983 14.4796C12.4908 14.7821 11.5097 14.7821 10.6022 14.4796C10.0914 14.3094 9.69061 13.9086 9.52036 13.3978C9.21786 12.4903 9.21786 11.5092 9.52036 10.6017C9.69061 10.0909 10.0914 9.69012 10.6022 9.51987Z" fill="#BABBBE"/>
<path fill-rule="evenodd" clip-rule="evenodd" d="M4.49057 6.9105C8.71801 2.96082 15.2824 2.96082 19.5099 6.9105C19.8581 7.23589 20.2368 7.65662 20.899 8.39247L21.6197 9.1932C21.762 9.35131 21.8823 9.52788 21.9774 9.71815C22.6956 11.1545 22.6956 12.8451 21.9774 14.2814C21.8823 14.4717 21.762 14.6482 21.6197 14.8063L20.899 15.607C20.2369 16.3428 19.8581 16.7637 19.5099 17.089C15.2824 21.0387 8.71801 21.0387 4.49057 17.089C4.14229 16.7636 3.76365 16.3429 3.10139 15.607L2.38077 14.8063C2.23847 14.6482 2.11813 14.4717 2.02299 14.2814C1.30484 12.8451 1.30484 11.1545 2.02299 9.71815C2.11812 9.52788 2.23847 9.35131 2.38077 9.1932L3.10142 8.39247C3.76366 7.65662 4.1423 7.23589 4.49057 6.9105ZM14.0308 7.6225C12.7127 7.18316 11.2878 7.18316 9.96973 7.6225C8.86175 7.99183 7.99232 8.86126 7.62299 9.96924C7.18365 11.2873 7.18365 12.7122 7.62299 14.0303C7.99232 15.1383 8.86175 16.0077 9.96973 16.377C11.2878 16.8164 12.7127 16.8164 14.0308 16.377C15.1387 16.0077 16.0082 15.1383 16.3775 14.0303C16.8168 12.7122 16.8168 11.2873 16.3775 9.96924C16.0082 8.86126 15.1387 7.99183 14.0308 7.6225Z" fill="#BABBBE"/>
</svg>
