<?xml version="1.0" encoding="utf-8"?>
<!-- Generator: Adobe Illustrator 27.1.0, SVG Export Plug-In . SVG Version: 6.00 Build 0)  -->
<svg version="1.1" baseProfile="basic" id="Layer_1"
	 xmlns="http://www.w3.org/2000/svg" xmlns:xlink="http://www.w3.org/1999/xlink" x="0px" y="0px" width="24px" height="24px"
	 viewBox="0 0 24 24" xml:space="preserve">
<path fill="#111214" d="M8.9,6.2c1.3-2.1,1.9-3.2,2.8-3.3c0.2,0,0.4,0,0.7,0c0.9,0.2,1.5,1.2,2.8,3.3l0,0c0.4,0.6,0.5,0.9,0.8,1.1
	c0.1,0.1,0.1,0.1,0.2,0.2c0.3,0.2,0.6,0.3,1.3,0.4l0,0c2.4,0.6,3.6,0.8,4,1.6c0.1,0.2,0.2,0.4,0.2,0.6c0.1,0.9-0.7,1.8-2.3,3.7l0,0
	c-0.5,0.5-0.7,0.8-0.8,1.1c0,0.1-0.1,0.2-0.1,0.2c-0.1,0.3-0.1,0.7,0,1.4l0,0c0.2,2.5,0.3,3.7-0.3,4.3c-0.2,0.2-0.3,0.3-0.5,0.4
	c-0.8,0.4-2-0.1-4.2-1l0,0c-0.6-0.3-1-0.4-1.3-0.4c-0.1,0-0.2,0-0.3,0c-0.3,0-0.7,0.2-1.3,0.4l0,0c-2.3,1-3.4,1.4-4.2,1
	C6.1,21.3,6,21.1,5.8,21c-0.6-0.7-0.5-1.9-0.3-4.3l0,0c0.1-0.7,0.1-1,0-1.4c0-0.1,0-0.2-0.1-0.2c-0.1-0.3-0.4-0.6-0.8-1.1l0,0
	C3,12,2.2,11.1,2.3,10.2c0-0.2,0.1-0.4,0.2-0.6c0.4-0.8,1.6-1.1,4-1.6l0,0c0.7-0.2,1-0.2,1.3-0.4c0.1,0,0.1-0.1,0.2-0.2
	C8.3,7.1,8.5,6.8,8.9,6.2L8.9,6.2z"/>
</svg>
